<?xml version="1.0" encoding="UTF-8" standalone="no"?>
<!-- Created with Inkscape (http://www.inkscape.org/) -->

<svg
   version="1.1"
   id="svg2"
   width="605.76001"
   height="191.67999"
   viewBox="0 0 605.76001 191.67999"
   sodipodi:docname="acp_logo2.svg"
   inkscape:version="1.1.2 (0a00cf5339, 2022-02-04)"
   xmlns:inkscape="http://www.inkscape.org/namespaces/inkscape"
   xmlns:sodipodi="http://sodipodi.sourceforge.net/DTD/sodipodi-0.dtd"
   xmlns="http://www.w3.org/2000/svg"
   xmlns:svg="http://www.w3.org/2000/svg">
  <defs
     id="defs6" />
  <sodipodi:namedview
     id="namedview4"
     pagecolor="#ffffff"
     bordercolor="#666666"
     borderopacity="1.0"
     inkscape:pageshadow="2"
     inkscape:pageopacity="0.0"
     inkscape:pagecheckerboard="0"
     showgrid="false"
     inkscape:zoom="3.1237086"
     inkscape:cx="91.877969"
     inkscape:cy="102.6024"
     inkscape:window-width="1920"
     inkscape:window-height="1016"
     inkscape:window-x="0"
     inkscape:window-y="453"
     inkscape:window-maximized="1"
     inkscape:current-layer="g8" />
  <g
     inkscape:groupmode="layer"
     inkscape:label="Image"
     id="g8">
    <path
       style="fill:currentColor;stroke-width:0.32"
       d="m 476.50638,189.13923 c -4.70108,-1.03002 -7.90252,-3.80451 -9.30524,-8.06428 -1.48429,-4.50734 -1.65642,-6.10784 -1.64685,-15.31227 0.008,-7.70785 0.0838,-8.96352 0.70275,-11.63869 1.3415,-5.79851 3.19123,-8.45154 7.18019,-10.29837 2.17949,-1.00907 2.58253,-1.08474 6.43706,-1.20854 3.23689,-0.10396 4.55382,-0.0125 6.18816,0.42993 2.66976,0.72267 5.53881,2.64209 6.80374,4.55174 1.25738,1.8983 2.5321,5.91043 2.92423,9.20393 0.35814,3.00815 0.44137,14.21538 0.1288,17.34514 -0.4625,4.6306 -1.94756,8.99111 -3.82004,11.21641 -2.85296,3.39057 -9.73881,5.05762 -15.5928,3.775 z m 7.3402,-7.1067 c 2.55683,-1.89403 3.11571,-4.8411 3.11571,-16.42985 0,-12.66747 -0.97469,-15.79356 -5.12,-16.42151 -3.18855,-0.48302 -5.53936,1.14212 -6.39591,4.42151 -0.87747,3.3595 -1.27952,11.7389 -0.85113,17.73926 0.20813,2.91541 0.52694,5.94874 0.70845,6.74074 0.44025,1.92098 1.70716,3.78304 2.95904,4.34911 1.43475,0.64876 4.46121,0.43236 5.58384,-0.39926 z m -241.0443,7.01442 c -25.51063,-0.0447 -43.46206,-0.19654 -43.84,-0.37077 -2.5967,-1.19708 -5.258,-2.53839 -8,-4.03205 -1.76,-0.95874 -3.416,-1.82851 -3.68,-1.93283 -0.89978,-0.35554 -4.31768,-2.17008 -5.12,-2.71816 -0.44,-0.30057 -1.16,-0.6566 -1.6,-0.79118 -0.44,-0.13457 -1.89415,-0.87346 -3.23144,-1.64198 -1.3373,-0.76851 -2.6608,-1.3973 -2.94112,-1.3973 -0.28031,0 -0.59289,-0.13466 -0.69461,-0.29925 -0.21964,-0.35537 -3.48312,-2.15336 -4.45392,-2.45384 -0.3734,-0.11557 -1.72135,-0.83995 -2.99545,-1.60973 -1.2741,-0.76978 -2.89963,-1.6329 -3.61229,-1.91805 -0.78933,-0.31583 -1.48176,-0.87815 -1.77168,-1.43879 -0.57193,-1.10599 -1.2057,-1.17322 -1.88858,-0.20034 l -0.50538,0.72 -33.08448,-0.0715 -33.084479,-0.0715 -1.708285,-0.81476 c -0.939555,-0.44812 -3.652285,-1.8372 -6.028285,-3.08684 -2.376,-1.24964 -6.286793,-3.25519 -8.690649,-4.45678 -2.40386,-1.20159 -4.457866,-2.32582 -4.564458,-2.49829 -0.106595,-0.17247 -0.698234,-0.48006 -1.314755,-0.68353 -0.616522,-0.20347 -1.938045,-0.86198 -2.936717,-1.46335 l -1.81577,-1.0934 H 42.858217 20.476501 l -2.562707,-1.30576 c -2.6346,-1.3424 -3.342799,-1.69776 -4.311514,-2.16344 -0.308,-0.14807 -1.424,-0.74692 -2.48,-1.3308 -1.056,-0.58387 -2.1720001,-1.18273 -2.4800001,-1.33079 -0.3079997,-0.14807 -0.8839997,-0.44051 -1.2799997,-0.64988 -0.396,-0.20937 -1.6560003,-0.87299 -2.8000003,-1.47472 -1.144,-0.60177 -2.4040001,-1.29779 -2.8000001,-1.54675 l -0.72,-0.45266 v -36.43344 c 0,-28.767231 0.084167,-36.499013 0.4,-36.745061 0.22,-0.171389 1.192,-0.716214 2.1600001,-1.210723 2.2647526,-1.156966 2.4657046,-1.260451 6.08,-3.131021 1.6720001,-0.86534 4.8525141,-2.493968 7.0678071,-3.619174 l 4.027807,-2.04583 h 20.680934 c 20.11913,0 20.689933,-0.0168 21.012195,-0.618963 0.201127,-0.375808 0.334055,-3.612813 0.338375,-8.24 0.0082,-8.807884 -0.127863,-8.377865 3.192883,-10.089302 1.144,-0.58959 2.368,-1.223062 2.72,-1.407715 0.352,-0.184653 1.144,-0.592835 1.76,-0.907075 1.517328,-0.774032 6.519075,-3.409091 8.447661,-4.450461 0.862215,-0.465564 1.654215,-0.847251 1.76,-0.848192 0.105786,-9.6e-4 2.784339,-1.367292 5.952339,-3.036342 L 92.402282,28.65 125.4031,28.6463 c 28.94669,-0.0032 33.04976,0.05531 33.39918,0.476339 0.2191,0.264 0.59674,0.48 0.83918,0.48 0.34025,0 0.44082,-0.627773 0.44082,-2.751638 0,-4.142183 0.78401,-5.376064 4.22707,-6.652643 0.82889,-0.307325 2.05273,-0.929073 2.71966,-1.381662 0.66693,-0.452589 1.63427,-0.969887 2.14966,-1.149551 0.51538,-0.179663 1.73953,-0.794279 2.72034,-1.365812 0.9808,-0.571533 4.08727,-2.20715 6.90327,-3.634704 2.816,-1.427554 5.624,-2.8686202 6.24,-3.2023692 0.616,-0.33375 2.344,-1.212766 3.84,-1.95337 1.496,-0.740604 2.936,-1.524596 3.2,-1.742206 0.264,-0.21761 1.31524,-0.771337 2.33608,-1.230503 1.02084,-0.459167 2.24484,-1.11017 2.72,-1.446674 1.91487,-1.356093 2.40228,-1.369137 47.33507,-1.266743 l 42.95115,0.09788 0.72885,0.72888 0.72885,0.728881 0.0816,91.8046142 0.0816,91.804621 -0.79813,0.94852 c -0.43897,0.52169 -1.12371,1.00162 -1.52164,1.06651 -0.39793,0.0649 -20.16351,0.0839 -43.92351,0.0422 z m 39.64577,-6.67044 c 0.25395,-0.66179 0.25395,-173.0458672 0,-173.7076542 -0.17566,-0.45776 -3.95223,-0.506172 -39.48577,-0.506172 -35.53353,0 -39.3101,0.04841 -39.48576,0.506172 -0.10683,0.278395 -0.19424,39.4175922 -0.19424,86.9759912 0,66.827653 0.0872,86.557063 0.384,86.853833 0.29448,0.29448 9.49995,0.384 39.48577,0.384 35.3605,0 39.12035,-0.0484 39.296,-0.50617 z m -68.95038,-10.98921 -0.93539,-0.93539 v -9.79916 -9.79916 l 0.78546,-0.78545 0.78545,-0.78546 h 28.91877 28.91876 l 0.65579,0.72 c 1.32707,1.457 1.37577,1.84256 1.37577,10.89095 v 8.77303 l -0.962,1.32801 -0.96201,1.32801 h -28.82261 -28.82261 z m 31.63693,-10.10462 c 0.12763,-5.75124 0.18978,-5.6 -2.30109,-5.6 -1.84151,0 -2.05506,0.069 -2.22953,0.72 -0.25538,0.95292 -0.25716,8.04312 -0.002,8.70755 0.16175,0.42152 0.60074,0.50216 2.32,0.42617 l 2.12054,-0.0937 z m 10.46768,-0.64 v -4.8 l -1.89031,-0.0975 c -1.29567,-0.0668 -1.97362,0.0339 -2.1551,0.32 -0.32266,0.50872 -0.36615,9.01924 -0.0477,9.33767 0.12478,0.12478 1.09678,0.18478 2.16,0.13333 l 1.93313,-0.0935 z m 11.04,-0.0146 v -4.97462 l -2.16,0.0946 -2.16,0.0946 -0.0894,4.46459 c -0.0492,2.45552 -0.0177,4.65152 0.07,4.88 0.10817,0.28187 0.83126,0.41541 2.24945,0.41541 h 2.08995 z m -44.76732,2.96267 c 1.56014,-1.05023 2.05868,-2.23422 1.59393,-3.78544 -0.44895,-1.49846 -1.09861,-1.88261 -3.18378,-1.88261 -1.4,0 -1.6817,0.11579 -2.26104,0.9294 -1.1587,1.62725 -0.59268,4.00662 1.18224,4.96968 1.17777,0.63905 1.40541,0.61934 2.66865,-0.23102 z m -8.18154,-25.5412 -1.13114,-0.99314 v -9.89156 -9.89155 l 1.04,-0.6341 c 1.01613,-0.61955 1.69246,-0.63413 29.4559,-0.6353 30.86092,-0.001 29.73454,-0.0658 30.5618,1.74986 0.26685,0.58566 0.3823,3.50141 0.3823,9.65463 0,9.65072 -0.0618,10.00571 -1.93274,11.11094 -0.80213,0.47383 -3.55362,0.52337 -29.0655,0.52337 h -28.17949 z m 31.12486,-6.11085 c 0.26102,-0.26102 0.384,-1.77778 0.384,-4.736 0,-2.95822 -0.12298,-4.47498 -0.384,-4.736 -0.2112,-0.2112 -1.14213,-0.384 -2.06874,-0.384 -1.33815,0 -1.75289,0.12734 -2.016,0.61897 -0.18219,0.34043 -0.33126,2.41814 -0.33126,4.61714 0,4.68823 0.1589,5.00389 2.51886,5.00389 0.83223,0 1.68594,-0.1728 1.89714,-0.384 z m 10.32504,0.0528 c 0.56783,-0.3039 0.61896,-0.71082 0.61896,-4.92577 0,-3.89439 -0.0771,-4.6241 -0.50617,-4.78874 -0.87152,-0.33443 -3.18809,-0.21198 -3.58983,0.18976 -0.26102,0.26102 -0.384,1.77778 -0.384,4.736 0,2.95822 0.12298,4.47498 0.384,4.736 0.47124,0.47124 2.63379,0.50404 3.47704,0.0528 z m 11.33896,-4.78882 v -4.96 l -1.89031,-0.0975 c -1.29567,-0.0668 -1.97362,0.0339 -2.1551,0.32 -0.14563,0.22961 -0.26699,2.39032 -0.26969,4.80157 -0.006,5.0397 0.0301,5.10527 2.7151,4.97408 l 1.6,-0.0782 z m -44.88919,3.18242 c 0.4075,-0.18567 1.07885,-0.83077 1.49188,-1.43355 1.47894,-2.15837 0.0622,-4.62887 -2.65458,-4.62887 -1.08211,0 -1.48562,0.18238 -2.19685,0.99291 -0.47919,0.5461 -0.87126,1.34525 -0.87126,1.77589 0,1.1531 0.84561,2.58855 1.84403,3.13028 1.0614,0.57591 1.42645,0.60089 2.38678,0.16334 z m -7.10423,-25.29955 c -1.99126,-0.79449 -1.92658,-0.42268 -1.92658,-11.073503 0,-5.73578 0.12862,-9.97176 0.31325,-10.31675 0.17228,-0.32191 0.76977,-0.74445 1.32775,-0.93896 1.4002,-0.48811 56.40675,-0.49894 57.80536,-0.0114 1.85665,0.64723 1.99364,1.43195 1.99364,11.41936 v 8.944913 l -0.78774,0.84998 c -0.43325,0.4675 -1.16263,0.99252 -1.62083,1.16673 -1.13371,0.43104 -56.02059,0.39222 -57.10485,-0.0404 z m 30.32942,-6.746873 c 0.25959,-0.25958 0.384,-1.74222 0.384,-4.576 0,-2.83378 -0.12441,-4.31641 -0.384,-4.576 -0.47104,-0.47104 -2.95106,-0.50549 -3.79703,-0.0527 -0.5614,0.30045 -0.61897,0.7042 -0.61897,4.34104 0,2.20538 0.14907,4.28831 0.33126,4.62874 0.26311,0.49163 0.67785,0.61896 2.016,0.61896 0.92661,0 1.85754,-0.1728 2.06874,-0.384 z m 10.43783,0.18976 c 0.42746,-0.16403 0.50617,-0.8756 0.50617,-4.576 0,-2.98137 -0.12272,-4.50448 -0.384,-4.76576 -0.2112,-0.2112 -1.0464,-0.384 -1.856,-0.384 -0.8096,0 -1.6448,0.1728 -1.856,0.384 -0.55205,0.55206 -0.53738,9.10078 0.016,9.32407 0.57867,0.2335 2.98047,0.24539 3.57383,0.0177 z m 11.22617,-4.76576 v -4.8 l -1.70597,-0.0976 c -0.98274,-0.0562 -1.89846,0.0621 -2.16,0.27918 -0.61708,0.51213 -0.66666,9.11552 -0.054,9.37365 0.22,0.0927 1.192,0.14069 2.16,0.10667 l 1.76,-0.0619 z m -43.808,2.272 c 1.5841,-1.5841 1.43713,-3.56626 -0.34614,-4.66838 -1.51696,-0.93754 -2.6672,-0.82601 -3.91062,0.37916 -1.50834,1.46193 -1.48142,3.01673 0.0759,4.38407 1.54184,1.35376 2.75989,1.32612 4.18086,-0.0948 z m -8.84079,-24.73345 c -0.43516,-0.297798 -0.897,-0.693798 -1.02631,-0.879999 -0.37397,-0.538538 -0.29466,-19.327647 0.0846,-20.036271 0.86799,-1.621856 0.1072,-1.582276 30.41227,-1.582276 h 28.21354 l 1.24235,1.242352 1.24235,1.242355 v 8.858682 c 0,9.137903 -0.0477,9.518518 -1.37577,10.97661 l -0.65579,0.72 h -28.67302 c -26.40837,0 -28.7355,-0.04277 -29.46421,-0.541453 z M 245.1346,61.122681 c 0.12765,-5.75215 0.19025,-5.6 -2.30418,-5.6 -1.56471,0 -2.08489,0.117866 -2.2339,0.506173 -0.2559,0.66687 -0.25143,8.252447 0.005,8.921375 0.16175,0.421517 0.60074,0.502157 2.32,0.426173 l 2.12051,-0.09372 z m 10.46768,-0.64 v -4.8 l -1.89031,-0.09747 c -1.29567,-0.06681 -1.97362,0.03386 -2.1551,0.32 -0.32266,0.508717 -0.36615,9.019244 -0.0477,9.337673 0.12478,0.124775 1.09678,0.184775 2.16,0.133331 l 1.93313,-0.09353 z m 11.04,-0.01462 V 55.49344 l -2.16,0.09462 -2.16,0.09462 -0.0894,4.464588 c -0.0492,2.455527 -0.0177,4.651527 0.07,4.88 0.10817,0.281875 0.83126,0.415411 2.24945,0.415411 h 2.08995 z m -44.22571,2.216214 c 0.76372,-0.494105 1.34571,-1.653001 1.34571,-2.679638 0,-0.32801 -0.485,-1.110637 -1.07778,-1.739168 -1.45349,-1.541142 -2.73132,-1.557677 -4.23422,-0.05478 -1.28994,1.289945 -1.42295,2.559869 -0.4038,3.855507 1.18636,1.508211 2.66994,1.718041 4.37009,0.618086 z M 217.40001,32.49011 c -2.2079,-1.188616 -3.02891,-2.752636 -3.02753,-5.767423 0.001,-2.757955 1.00302,-4.652673 3.01205,-5.696911 1.21153,-0.62972 1.78085,-0.718737 3.91399,-0.611979 l 2.49623,0.124931 1.58889,1.564991 c 2.40932,2.373092 2.84559,4.835189 1.37846,7.779335 -0.4621,0.927316 -1.1461,1.827428 -1.52,2.00025 -0.3739,0.172822 -1.18382,0.587465 -1.79982,0.92143 -1.70444,0.924074 -3.95946,0.806653 -6.04227,-0.314624 z m 31.80062,-0.393024 c -0.0996,-0.40392 -0.13996,-3.1104 -0.0897,-6.014399 l 0.0914,-5.28 h 2.24 2.24 v 5.92 5.919999 l -2.15028,0.0944 c -2.01316,0.08838 -2.16184,0.04756 -2.33137,-0.64 z m 15.20165,-5.359783 v -6.09462 h 2.24707 2.24706 l -0.0871,6 -0.0871,5.999999 -2.16,0.09462 -2.16,0.09462 z m -67.584,153.201377 c 0.29672,-0.29672 0.384,-19.48996 0.384,-84.440823 0,-71.029992 -0.0684,-84.11354 -0.44107,-84.42287 -0.53847,-0.446889 -1.40229,-0.152688 -3.54903,1.208737 -0.85138,0.539931 -2.04437,1.145519 -2.65108,1.345751 -0.6067,0.200232 -2.37093,1.140117 -3.9205,2.088633 -1.54957,0.948516 -2.98472,1.724575 -3.18921,1.724575 -0.2045,0 -0.8302,0.332175 -1.39046,0.738166 -0.56025,0.405992 -1.59465,0.998322 -2.29865,1.31629 -1.78479,0.806118 -3.40481,1.640438 -6.56,3.378436 -3.82962,2.109507 -4.52272,2.467764 -5.52,2.85324 l -0.88,0.340147 v 69.402275 69.402273 l 2,1.08459 c 1.1,0.59652 2.36,1.22858 2.8,1.40458 0.44,0.176 1.70531,0.85859 2.81179,1.51687 1.10649,0.65827 2.40249,1.28918 2.88,1.40201 0.47752,0.11283 1.30021,0.52266 1.82821,0.91073 0.528,0.38807 2.688,1.61692 4.8,2.73077 2.112,1.11385 4.2,2.21654 4.64,2.45043 0.44,0.23389 1.00467,0.42613 1.25481,0.42722 0.25014,9.6e-4 0.69319,0.21771 0.98455,0.48139 0.45425,0.41109 4.9504,2.88295 5.45664,2.99992 0.0968,0.0224 0.3488,-0.13214 0.56,-0.34334 z m -42.25523,-81.136003 -0.0808,-65.519995 -28.64,-0.09101 c -15.752,-0.05005 -29.107998,-0.0075 -29.679998,0.0945 l -1.04,0.185507 v 65.242036 c 0,61.866195 0.02899,65.249615 0.56,65.388385 0.308,0.0805 13.700348,0.16305 29.760768,0.18346 l 29.20077,0.0371 z m -51.70499,56.779383 c -0.6713,-0.71457 -0.69578,-0.99094 -0.69578,-7.85455 v -7.11392 l 0.78546,-0.78545 0.78545,-0.78546 h 21.39421 c 21.04922,0 21.40543,0.0105 22.09067,0.64886 0.38305,0.35687 0.77869,0.97648 0.87919,1.37691 0.1005,0.40042 0.13825,3.69368 0.0839,7.31834 -0.0893,5.95039 -0.15805,6.65562 -0.70845,7.2631 -0.60806,0.67109 -0.66435,0.67279 -22.26422,0.67279 h -21.65463 z m 23.55453,-7.99733 0.0903,-3.77795 -1.53031,0.0979 -1.53031,0.0979 -0.0918,3.33837 c -0.0505,1.8361 -0.0158,3.53644 0.0771,3.77854 0.11573,0.30157 0.59808,0.40915 1.53184,0.34163 l 1.36293,-0.0985 z m 8.05843,3.31899 c 0.48293,-0.90236 0.42123,-5.85567 -0.0815,-6.5432 -0.30161,-0.41248 -0.75402,-0.53666 -1.68,-0.46116 l -1.26724,0.10332 -0.0918,3.33837 c -0.0505,1.8361 -0.019,3.5281 0.07,3.76 0.26684,0.69538 2.65555,0.54087 3.05062,-0.19733 z m 8.26142,-3.30104 0.0901,-3.76 h -1.57592 c -1.92627,0 -1.96439,0.0769 -1.96439,3.96218 0,3.40482 0.21898,3.7896 2.07856,3.65238 l 1.28144,-0.0946 z m -33.01779,1.89333 c 1.71628,-1.47628 0.70248,-4.02863 -1.60717,-4.04621 -1.32168,-0.0101 -2.1052,0.81667 -2.1052,2.22132 0,2.35421 1.97075,3.32297 3.71237,1.82489 z m -5.79237,-18.37375 c -0.352,-0.0801 -0.892,-0.3691 -1.2,-0.64221 -0.50224,-0.44534 -0.56,-1.24426 -0.56,-7.7458 0,-5.75495 0.0936,-7.37728 0.45411,-7.8704 0.44071,-0.60283 1.09585,-0.62372 22.19654,-0.70765 21.07198,-0.0838 21.76598,-0.0674 22.50589,0.53117 0.7564,0.61193 0.76437,0.68219 0.86164,7.59355 0.10776,7.6571 0.01,8.17416 -1.65772,8.75549 -0.96866,0.33767 -41.13816,0.41863 -42.60046,0.0858 z m 22.49016,-8.63958 -0.0902,-3.76 h -1.44 -1.44 l -0.0918,3.33837 c -0.0505,1.8361 -0.019,3.5281 0.07,3.76 0.10116,0.2636 0.70908,0.42163 1.62199,0.42163 h 1.4602 z m 8.17942,2.88 c 0.289,-1.58523 0.1994,-5.58266 -0.13931,-6.21554 -0.26197,-0.48951 -0.61203,-0.59884 -1.67083,-0.52185 l -1.33944,0.0974 -0.0918,3.33837 c -0.0505,1.8361 -0.019,3.5281 0.07,3.76 0.10034,0.26148 0.70293,0.42163 1.58641,0.42163 1.30191,0 1.43844,-0.0758 1.58505,-0.88 z m 8.14058,-2.88 -0.0902,-3.76 -1.22233,-0.10065 c -1.93904,-0.15966 -2.13767,0.20518 -2.13767,3.9265 0,1.79712 0.096,3.36349 0.21334,3.48082 0.11733,0.11733 0.9139,0.21333 1.77015,0.21333 h 1.55682 z m -33.32761,2.23289 c 1.74273,-1.41167 1.5873,-3.20751 -0.35791,-4.13512 -1.084,-0.51692 -1.16552,-0.51231 -2.00727,0.11371 -0.66591,0.49524 -0.90101,0.97105 -0.97546,1.97422 -0.0889,1.19771 0.001,1.38222 0.96,1.96681 1.2808,0.78089 1.50644,0.7885 2.38064,0.0804 z m -5.96255,-18.85496 c -1.1862,-0.42394 -1.28,-1.02835 -1.28,-8.247893 0,-5.87885 0.0838,-7.18726 0.49815,-7.77884 l 0.49814,-0.7112 21.82186,0.005 c 12.00202,0.003 21.98029,0.1107 22.17395,0.24 0.9398,0.62753 1.0879,1.78612 1.0879,8.51084 v 6.877813 l -0.84315,0.66323 c -0.83459,0.65649 -1.05971,0.66297 -22.16,0.63796 -11.72427,-0.0139 -21.53285,-0.10246 -21.79685,-0.19681 z m 22.97065,-8.355903 0.0906,-3.61796 -1.53065,0.098 -1.53065,0.098 -0.0906,3.4145 c -0.0997,3.758773 -0.0855,3.784793 2.01056,3.675533 l 0.96,-0.05 z m 7.77039,3.446723 c 0.54381,-0.29104 0.61837,-0.6893 0.61406,-3.280013 -0.003,-1.6218 -0.12496,-3.13808 -0.27171,-3.3695 -0.17242,-0.2719 -0.76505,-0.38511 -1.6751,-0.32 l -1.40829,0.10076 -0.0906,3.4145 c -0.0809,3.051413 -0.0299,3.430293 0.48,3.562883 1.01098,0.26292 1.71842,0.23023 2.3516,-0.10863 z m 8.11279,0.13702 c 0.4189,-0.16075 0.50617,-0.79811 0.50617,-3.696733 v -3.50248 l -1.68,0.0967 -1.68,0.0967 -0.0925,3.19515 c -0.079,2.727813 -0.0115,3.254373 0.46116,3.600003 0.59409,0.43441 1.66536,0.5252 2.48516,0.21061 z M 109.8669,99.067297 c 0.51446,-0.51447 0.93538,-1.17354 0.93538,-1.46462 0,-0.82144 -1.76465,-2.4 -2.68292,-2.4 -1.979,0 -2.86702,2.88365 -1.27392,4.13678 1.14778,0.902853 1.91561,0.833683 3.02146,-0.27216 z m -6.91916,-18.73007 -0.78546,-0.785456 V 72.36045 65.169132 l 0.84316,-0.663226 c 0.83404,-0.656061 1.07346,-0.663149 22.16,-0.656109 20.51999,0.0068 21.34675,0.03008 22.11684,0.621213 l 0.8,0.614099 0.097,7.218298 0.097,7.218297 -0.86374,0.800493 -0.86374,0.80048 h -21.40782 -21.40782 z m 23.4647,-7.774547 c -0.0881,-3.673811 -0.10741,-3.762441 -0.84271,-3.866521 -0.4139,-0.05859 -1.0979,-0.01984 -1.52,0.0861 -0.75418,0.189285 -0.76745,0.256114 -0.76745,3.866517 v 3.673904 h 1.61016 1.61015 z m 8.20675,2.93808 c 0.2932,-1.168189 0.16034,-5.630796 -0.18751,-6.29808 -0.17532,-0.336336 -0.66039,-0.56 -1.21449,-0.56 -1.89082,0 -1.93491,0.08705 -1.93491,3.820903 0,1.887836 0.096,3.528431 0.21334,3.645763 0.11733,0.117334 0.82172,0.213334 1.56531,0.213334 1.18484,0 1.37747,-0.101606 1.55826,-0.82192 z m 8.18309,-2.836515 c 0,-3.428195 -0.042,-3.671776 -0.66782,-3.870393 -0.3673,-0.11658 -1.1593,-0.119757 -1.76,-0.0071 l -1.09218,0.204924 v 3.159327 c 0,1.737629 0.0874,3.387104 0.19424,3.665498 0.1405,0.366134 0.62742,0.506173 1.76,0.506173 h 1.56576 v -3.658435 z m -33.02034,1.405968 c 0.97976,-0.912784 1.03846,-2.264778 0.14187,-3.267533 -0.63989,-0.715641 -2.55982,-0.733139 -3.33633,-0.0304 -0.73984,0.669546 -0.77131,2.574352 -0.0556,3.365207 0.70987,0.784396 2.37285,0.749977 3.25006,-0.06727 z M 106.0827,51.643792 c -2.52249,-1.159517 -3.45578,-4.692627 -1.85996,-7.041094 1.77182,-2.607472 5.3641,-2.926048 7.61483,-0.675309 2.44662,2.446611 1.84306,6.211225 -1.23561,7.706956 -1.71158,0.831549 -2.72619,0.833671 -4.51926,0.0094 z m 23.73702,0.06966 c -0.0756,-0.07559 -0.13744,-2.136963 -0.13744,-4.580828 v -4.443389 l 1.68,0.09672 1.68,0.09672 0.0695,3.68 c 0.0949,5.021177 0.092,5.02998 -1.69007,5.171718 -0.80553,0.06406 -1.52644,0.05464 -1.60203,-0.02096 z m 11.61095,-0.229043 c -0.12561,-0.125619 -0.22839,-2.148393 -0.22839,-4.495062 v -4.266665 h 1.60903 1.60903 l -0.089,4.4 -0.089,4.399999 -1.29161,0.09506 c -0.71038,0.05228 -1.39438,-0.0077 -1.52,-0.133331 z M 90.642281,98.838397 c 0,-54.349235 -0.06364,-63.20022 -0.455475,-63.350582 -0.448329,-0.172042 -5.428509,2.138441 -7.145523,3.315062 -0.48345,0.331296 -2.535002,1.434461 -4.559002,2.451472 -2.024,1.017014 -4.688,2.409811 -5.92,3.095107 -1.232,0.685293 -2.738953,1.469203 -3.348784,1.742019 -0.609833,0.272816 -1.219629,0.670445 -1.355101,0.883619 -0.135472,0.213172 -0.248521,23.603161 -0.251216,51.977753 l -0.0049,51.590163 1.766215,1.12984 c 0.971417,0.62141 1.843961,1.12983 1.938988,1.12983 0.385581,0 5.801792,2.74352 6.694797,3.39117 0.528,0.38293 2.616,1.50891 4.64,2.50218 2.024,0.99327 4.459386,2.22011 5.411968,2.72631 0.952586,0.5062 1.924586,0.84646 2.16,0.75612 0.355376,-0.13637 0.428032,-10.88811 0.428032,-63.340063 z M 61.763433,151.57819 c 0.318973,-0.20253 0.384528,-9.16608 0.32,-43.7551 l -0.08115,-43.500409 h -19.68 -19.680003 l -0.08114,43.588399 -0.08114,43.5884 3.121142,0.10463 c 6.928214,0.23225 35.788249,0.21156 36.162294,-0.0259 z m -34.089951,-5.67365 c -0.680724,-0.4768 -0.711202,-0.70209 -0.711202,-5.25715 0,-3.89969 0.0908,-4.84979 0.502858,-5.26185 0.442168,-0.44217 2.232028,-0.50286 14.830403,-0.50286 13.473898,0 14.359102,0.0349 14.857143,0.5852 0.441597,0.48796 0.529597,1.35705 0.529597,5.2304 0,4.09381 -0.06947,4.70808 -0.585197,5.17481 -0.525846,0.47588 -2.011533,0.52959 -14.648797,0.52959 -12.210749,0 -14.157302,-0.0656 -14.774805,-0.49814 z m 15.544799,-3.08586 c 0.514342,-0.51434 0.490301,-3.5083 -0.03393,-4.22523 -0.256899,-0.35133 -0.719264,-0.52901 -1.2,-0.46116 -0.724208,0.10223 -0.789206,0.26179 -0.878541,2.15669 -0.05306,1.12546 -0.02157,2.24146 0.06996,2.48 0.205997,0.53681 1.523348,0.56887 2.042516,0.0497 z m 5.356806,-0.3531 c 0.101751,-0.40541 0.140496,-1.52141 0.0861,-2.48 -0.08747,-1.5413 -0.18422,-1.75499 -0.836518,-1.84746 -1.223802,-0.17349 -1.662387,0.48074 -1.662387,2.47974 0,1.96496 0.359209,2.58482 1.497904,2.58482 0.495078,0 0.789421,-0.23714 0.914901,-0.7371 z m 5.427194,-1.8229 c 0,-2.30188 -0.03197,-2.40451 -0.782071,-2.51039 -1.090793,-0.15397 -1.617929,0.71515 -1.617929,2.66755 0,1.84536 0.42928,2.47315 1.597753,2.3366 0.776685,-0.0908 0.802247,-0.17023 0.802247,-2.49376 z m -21.782858,1.09714 c 0.276573,-0.27656 0.502858,-0.77028 0.502858,-1.09714 0,-1.29577 -1.911018,-2.12098 -2.816001,-1.216 -0.495013,0.49502 -0.495013,1.93699 0,2.432 0.53848,0.53848 1.716328,0.47796 2.313143,-0.11886 z m -4.925884,-12.9161 c -0.183078,-0.34208 -0.331259,-2.62217 -0.331259,-5.09714 0,-3.64441 0.09362,-4.57181 0.502858,-4.98104 0.442168,-0.44217 2.232028,-0.50286 14.830403,-0.50286 13.473898,0 14.359102,0.0349 14.857143,0.5852 0.44144,0.48778 0.529597,1.35605 0.529597,5.216 0,3.17507 -0.120714,4.75152 -0.384,5.0148 -0.287478,0.28748 -4.065053,0.384 -15.028743,0.384 -14.151319,0 -14.655901,-0.0209 -14.975999,-0.61896 z m 16.122246,-3.30104 c 0.379184,-1.87381 0.0088,-3.99169 -0.739539,-4.22922 -1.317927,-0.41829 -1.633965,0.0814 -1.633965,2.58346 v 2.36576 h 1.113904 c 0.898656,0 1.142057,-0.13913 1.2596,-0.72 z m 5.239968,-1.54963 c 0.110243,-2.48815 -0.357165,-3.19745 -1.702947,-2.58427 -0.719981,0.32804 -0.790525,0.54165 -0.790525,2.39371 0,1.11844 0.102825,2.13635 0.228499,2.26203 0.125674,0.12567 0.665674,0.18567 1.2,0.13333 0.963242,-0.0944 0.972294,-0.1131 1.064973,-2.2048 z m 5.506528,-0.0961 c 0,-1.86207 -0.10777,-2.40712 -0.506173,-2.56 -1.385424,-0.53164 -2.053827,0.33251 -2.053827,2.65529 0,1.01409 0.096,1.93981 0.213334,2.05714 0.117331,0.11733 0.693331,0.21333 1.28,0.21333 h 1.066666 z m -22.025197,1.19617 c 0.726141,-0.65715 0.743936,-1.32461 0.0556,-2.08521 -0.604984,-0.6685 -1.720903,-0.7667 -2.286404,-0.2012 -0.871965,0.87197 -0.08934,2.816 1.133661,2.816 0.28157,0 0.775284,-0.23831 1.097143,-0.52959 z m -4.843545,-12.88937 c -0.48013,-0.89713 -0.434549,-9.70975 0.05274,-10.19704 0.504804,-0.5048 28.77859,-0.55498 29.717038,-0.0527 0.570896,0.30554 0.618963,0.71471 0.618963,5.26874 0,4.55404 -0.04807,4.96321 -0.618963,5.26875 -0.400381,0.21427 -5.707668,0.33125 -15.02874,0.33125 -13.919021,0 -14.421062,-0.0211 -14.741039,-0.61896 z m 16.107049,-3.30104 c 0.57791,-2.15646 -0.03252,-4.4 -1.197165,-4.4 -0.838035,0 -1.161142,0.81922 -1.161142,2.944 v 2.176 h 1.082678 c 0.852272,0 1.123741,-0.15322 1.275629,-0.72 z m 5.257686,-1.46793 c 0.09619,-2.03197 -0.233001,-2.93207 -1.07232,-2.93207 -0.86807,0 -1.423673,0.99778 -1.423673,2.55669 0,2.22815 0.217133,2.61573 1.400848,2.50054 0.991869,-0.0965 0.999853,-0.11201 1.095145,-2.12516 z m 5.504007,0.0119 c 0,-2.12478 -0.323107,-2.944 -1.161143,-2.944 -0.844179,0 -1.398857,1.01379 -1.398857,2.55669 0,2.20392 0.206694,2.56331 1.474237,2.56331 h 1.085763 z m -22.041898,0.9295 c 0.643786,-0.52131 0.704026,-0.7344 0.428838,-1.51689 -0.342441,-0.97372 -1.007961,-1.25114 -2.252251,-0.93885 -0.934596,0.23457 -1.066656,1.56923 -0.245093,2.47705 0.671788,0.74231 1.131312,0.73758 2.068506,-0.0213 z M 27.491877,95.577477 c -0.441942,-0.48833 -0.529597,-1.35923 -0.529597,-5.26185 0,-4.46997 0.03143,-4.69867 0.711202,-5.1748 0.617606,-0.43259 2.569334,-0.49815 14.830405,-0.49815 13.272055,0 14.150976,0.0351 14.648797,0.5852 0.441597,0.48796 0.529597,1.35705 0.529597,5.2304 0,4.09381 -0.06947,4.70808 -0.585197,5.1748 -0.526083,0.4761 -2.024153,0.5296 -14.830403,0.5296 -13.394129,0 -14.276849,-0.035 -14.774804,-0.5852 z m 21.230404,-4.86781 c 0,-2.35155 -0.205491,-2.86699 -1.142979,-2.86699 -0.929812,0 -1.418407,0.85049 -1.412653,2.45896 0.0066,1.84178 0.307504,2.61303 1.068253,2.73797 1.146467,0.18829 1.487379,-0.34574 1.487379,-2.32994 z m 5.372745,-0.26673 c -0.09055,-2.38241 -0.113094,-2.44261 -0.951222,-2.53944 -1.181232,-0.13646 -1.651997,0.84269 -1.468573,3.05453 0.157002,1.89325 0.501895,2.30953 1.72048,2.07658 0.770448,-0.14728 0.78953,-0.21799 0.699315,-2.59167 z m -10.694438,1.79974 c 0.333091,-1.24292 0.219056,-3.29393 -0.216237,-3.88923 -0.256899,-0.35133 -0.719264,-0.52901 -1.2,-0.46116 -0.743024,0.10488 -0.786736,0.23422 -0.87553,2.59039 l -0.09346,2.48 h 1.096138 c 0.866233,0 1.136611,-0.15101 1.289091,-0.72 z m -11.12888,-1.04 c 0.485571,-0.74108 0.485571,-0.85892 0,-1.6 -0.2883,-0.44 -0.761523,-0.8 -1.051607,-0.8 -0.770394,0 -1.697821,0.95352 -1.697821,1.7456 0,1.55529 1.867842,1.99987 2.749428,0.6544 z M 30.16228,76.737493 c -0.264,-0.09606 -0.876,-0.543635 -1.36,-0.994605 -1.548116,-1.44247 -0.987582,-3.971705 1.121986,-5.062605 1.14425,-0.591715 2.102623,-0.392156 3.413352,0.710749 0.851594,0.71657 0.984663,1.039363 0.984663,2.388557 0,1.443062 -0.08954,1.620861 -1.194282,2.371555 -1.158241,0.787043 -1.972013,0.947933 -2.965719,0.586349 z m 15.253335,-0.308147 c -0.117334,-0.117332 -0.213334,-1.34442 -0.213334,-2.726861 0,-2.398698 0.03815,-2.530909 0.835056,-2.894003 1.269667,-0.578499 1.5848,0.117091 1.460576,3.223936 l -0.104365,2.610262 h -0.882301 c -0.485264,0 -0.978301,-0.096 -1.095632,-0.213334 z m 7.694691,0.01469 c -0.125414,-0.125408 -0.228025,-1.350954 -0.228025,-2.723427 0,-2.106189 0.09293,-2.545143 0.595795,-2.814269 0.416205,-0.222746 0.758262,-0.200061 1.134784,0.07526 0.442768,0.32376 0.522067,0.849972 0.444205,2.9476 -0.09156,2.466586 -0.122416,2.556707 -0.906759,2.648176 -0.446588,0.05208 -0.914588,-0.0079 -1.04,-0.133334 z M 19.203461,107.89603 c 0.07788,-40.421447 0.05773,-42.133347 -0.496,-42.133347 -0.317449,0 -0.713981,0.123056 -0.881181,0.273459 -0.331924,0.298582 -4.739112,2.650508 -10.1439998,5.41342 l -3.4400003,1.758487 v 34.815441 34.81544 l 3.7600003,1.9765 c 8.4062718,4.41887 10.4606618,5.4337 10.7826268,5.32638 0.23367,-0.0779 0.362327,-13.06352 0.418554,-42.24578 z m 288.796679,58.10665 0.0821,-22.64 h 9.6 c 9.3784,0 9.6438,0.0177 11.49756,0.76453 2.63933,1.06339 5.29962,3.72184 6.27978,6.27547 1.11101,2.89451 1.26931,8.8118 0.31178,11.65347 -0.94592,2.80721 -2.20749,4.52341 -4.39802,5.98293 -2.60154,1.73338 -5.1376,2.32276 -10.0911,2.34515 l -4.08,0.0185 v 9.12 9.12 h -4.64215 -4.64215 z m 16.77975,-3.14942 c 2.20198,-1.63347 3.07337,-4.58931 2.37996,-8.073 -0.7079,-3.55658 -2.62166,-4.85758 -7.14537,-4.85758 h -2.81219 v 6.90913 6.90913 l 3.3376,-0.10913 c 2.77705,-0.0908 3.48915,-0.22155 4.24,-0.77855 z m 16.4224,3.06942 v -22.72 h 4.48 4.48 v 19.04 19.04 h 8.16 8.16 v 3.68 3.68 h -12.64 -12.64 z m 27.52854,18.16 c 1.11114,-4.2316 2.31094,-8.75794 3.88067,-14.64 3.55187,-13.30959 6.46752,-24.33596 6.64237,-25.12 l 0.21411,-0.96 5.64234,-0.0873 5.64233,-0.0873 0.48317,1.68728 c 0.26576,0.92801 0.93591,3.41528 1.48919,5.52728 0.55331,2.112 1.29696,4.92 1.65254,6.24 0.35558,1.32 0.98598,3.696 1.40086,5.28 1.31437,5.01825 4.53783,17.18063 5.25828,19.84 1.24547,4.59745 1.6056,6.04796 1.6056,6.46723 0,0.31796 -1.06084,0.41277 -4.61844,0.41277 -4.12627,0 -4.63491,-0.0597 -4.77305,-0.56 -0.085,-0.308 -0.55738,-2.468 -1.0497,-4.8 l -0.8951,-4.24 -6.09187,1.7e-4 -6.09184,1.8e-4 -0.76237,3.43982 c -0.4193,1.89191 -0.90442,4.05183 -1.07799,4.79983 l -0.31561,1.36 h -4.71645 -4.71642 z m 20.79146,-12.92709 c 0,-0.28989 -0.51661,-2.91789 -1.14804,-5.84 -0.63139,-2.9221 -1.56464,-7.24215 -2.07385,-9.60011 -0.50922,-2.35796 -0.98439,-4.34573 -1.05591,-4.41727 -0.15116,-0.15114 -0.37737,0.80835 -2.12777,9.02447 -0.71242,3.344 -1.50663,6.97359 -1.76487,8.06577 -0.83478,3.53032 -1.11075,3.29423 3.85044,3.29423 3.79817,0 4.32,-0.0637 4.32,-0.52709 z m 24,-1.55291 v -19.04 h -4.9705 -4.97046 l 0.0905,-3.6 0.0905,-3.6 14.48,-0.0833 14.48,-0.0833 v 3.67493 3.67492 l -4.88,0.0883 -4.88,0.0883 -0.0825,18.96 -0.0826,18.96 h -4.63744 -4.63747 z m 23.36,-3.68 v -22.72 h 12.64 12.64 v 3.68 3.68 h -8.16 -8.16 v 5.44 5.44 h 7.68 7.68 v 3.68 3.68 h -7.68 -7.68 v 9.92 9.92 h -4.48 -4.48 z m 64.96,0 v -22.72 h 9.26425 c 5.64058,0 9.92752,0.14074 10.96,0.3598 3.65661,0.77586 6.61591,3.13351 7.80589,6.21897 0.73591,1.90804 0.85747,8.12547 0.20115,10.28778 -0.65644,2.16277 -2.25571,3.97215 -4.46656,5.05345 -1.07958,0.528 -1.97228,1.0496 -1.98377,1.1591 -0.0115,0.10951 0.51904,0.28641 1.17904,0.39311 0.66,0.1067 1.72461,0.55183 2.36579,0.98918 2.24272,1.52978 2.94058,4.15077 3.32771,12.49861 0.23578,5.08337 0.55635,6.72987 1.51088,7.76 l 0.66717,0.72 h -5.0321 -5.03212 l -0.46189,-1.10547 c -0.31501,-0.75392 -0.54765,-3.23482 -0.73152,-7.80113 -0.29389,-7.29897 -0.47904,-8.02999 -2.39523,-9.45834 -0.7648,-0.57009 -1.45546,-0.68944 -4.56,-0.78799 l -3.65869,-0.11614 v 9.63453 9.63454 h -4.48 -4.48 z m 16.56009,-3.55877 c 1.96493,-0.95122 2.98964,-2.61365 3.19607,-5.18517 0.26797,-3.33822 -0.80851,-5.5399 -3.25101,-6.64923 -0.97994,-0.44506 -2.08259,-0.59452 -4.42515,-0.5998 l -3.12,-0.007 v 6.56 6.56 h 3.09897 c 2.50394,0 3.3682,-0.13032 4.50112,-0.67877 z m 18.95991,3.55877 v -22.72 h 6.81257 6.81261 l 2.3697,11.76 c 1.30336,6.468 2.7377,13.5847 3.18742,15.81487 0.44973,2.23018 0.90032,4.13681 1.00132,4.23695 0.10099,0.10014 0.93632,-3.52455 1.85628,-8.05487 2.22093,-10.93695 2.74512,-13.48358 3.88071,-18.85381 0.52768,-2.49528 0.95939,-4.61928 0.95939,-4.72 0,-0.10073 3.024,-0.18314 6.72,-0.18314 h 6.72 v 22.72 22.72 h -4.15734 -4.15738 l -0.0826,-18.16 -0.0827,-18.16 -0.7305,3.36 c -0.40176,1.848 -2.20713,9.984 -4.01196,18.08 l -3.28151,14.72 -3.55699,0.0902 -3.55702,0.0902 -0.68426,-2.97019 c -0.37635,-1.6336 -1.41709,-6.28219 -2.31277,-10.33019 -0.89568,-4.048 -1.88627,-8.512 -2.20134,-9.92 -0.31504,-1.408 -1.0104,-4.58365 -1.54525,-7.05701 -0.53482,-2.47335 -1.11315,-4.84935 -1.28512,-5.28 -0.20947,-0.5245 -0.31942,5.21201 -0.33299,17.37701 l -0.0203,18.16 h -4.16 -4.16 z M 317.60694,118.4052 c -7.06311,-1.96889 -9.73343,-6.71503 -10.26381,-18.24252 -0.43365,-9.425223 0.31676,-17.244573 2.03068,-21.160013 2.04446,-4.670544 6.60031,-7.159987 13.10329,-7.159987 5.24192,0 9.25091,1.612135 11.40554,4.586477 1.22848,1.695859 2.38848,5.51927 2.66185,8.77352 l 0.22176,2.64 h -4.61456 -4.61456 l -0.19846,-2.57357 c -0.37098,-4.81094 -1.89286,-6.702926 -5.3936,-6.70523 -1.61328,-9.6e-4 -1.94157,0.116083 -2.92537,1.043923 -2.02085,1.905907 -2.76425,6.221207 -2.76925,16.074877 -0.005,9.482733 0.81732,13.902143 2.91441,15.666723 0.81299,0.68409 1.28917,0.81328 2.99743,0.81328 1.73225,0 2.17971,-0.12523 3.043,-0.85162 1.54221,-1.2977 2.1625,-3.19135 2.49876,-7.62838 l 0.21824,-2.88 h 4.48 4.48 l -0.10192,2.72 c -0.27828,7.42623 -3.07543,12.51924 -7.91428,14.41029 -2.43257,0.95066 -8.61296,1.20987 -11.25915,0.47223 z m 34.23999,0 c -5.90327,-1.64558 -8.62148,-5.22548 -9.84237,-12.96252 -0.67296,-4.26483 -0.65475,-15.956783 0.0317,-20.281813 1.23248,-7.766117 3.69958,-11.020939 9.70419,-12.8025 2.79629,-0.829655 8.04803,-0.702637 10.90435,0.263724 5.16826,1.748544 7.22563,4.335533 8.71789,10.962046 0.6311,2.80244 0.70749,4.04666 0.71325,11.61854 0.007,8.723883 -0.25683,11.205723 -1.63056,15.360003 -1.16042,3.50923 -3.74173,6.09877 -7.42928,7.45298 -2.36893,0.86996 -8.65869,1.08932 -11.16909,0.38954 z m 7.94803,-6.96298 c 2.4919,-1.65115 3.25385,-5.41639 3.25385,-16.079543 0,-13.41616 -1.26009,-16.799997 -6.25606,-16.799997 -5.10771,0 -6.15075,2.903567 -6.14998,17.119997 0,10.986443 0.5871,14.060263 2.99516,15.696593 1.58816,1.07917 4.57722,1.10973 6.15703,0.063 z m 106.8808,6.95227 c -3.94003,-1.1011 -6.7239,-3.43419 -7.96381,-6.67429 -1.22995,-3.21409 -1.38233,-5.93451 -1.28361,-22.917523 l 0.0939,-16.159997 4.54499,-0.08869 4.54499,-0.0887 0.095,17.848697 c 0.10378,19.498623 0.0663,19.105103 1.98934,20.879113 0.69812,0.64399 1.25412,0.81018 3.00125,0.89704 3.45283,0.17167 4.84359,-1.16186 5.52026,-5.29311 0.16525,-1.00889 0.30128,-9.142353 0.3023,-18.074353 l 0.002,-16.239998 h 4.49699 4.49699 l -0.11782,18.159998 c -0.13034,20.089243 -0.10317,19.812283 -2.26016,23.039783 -1.15296,1.72517 -3.77322,3.61295 -6.136,4.42071 -2.25175,0.7698 -8.99389,0.94321 -11.32653,0.29132 z m 118.03072,0.0695 c -2.75891,-0.7766 -5.01859,-2.66454 -6.3776,-5.32839 -0.35053,-0.68711 -1.0263,-2.6631 -1.50169,-4.39111 -0.84733,-3.07992 -0.86474,-3.331 -0.88461,-12.741833 -0.0192,-9.08194 0.0202,-9.75542 0.73168,-12.48 0.99718,-3.819143 2.27846,-6.451616 3.95392,-8.123613 2.77968,-2.773974 5.7592,-3.694265 11.26326,-3.478937 4.52928,0.17719 6.72688,0.876576 8.97648,2.856748 2.4776,2.180883 3.99424,5.947172 4.0088,9.955092 l 0.005,1.52929 -4.21238,-0.0893 -4.21235,-0.0893 -0.4105,-2.01449 c -0.75882,-3.72456 -2.39459,-5.505511 -5.05661,-5.505511 -3.30928,0 -4.93417,2.215671 -5.7903,7.895531 -0.98656,6.54527 -0.34503,18.702703 1.17312,22.231773 0.96125,2.23442 2.48003,3.4727 4.25945,3.4727 1.83412,0 2.71882,-0.35834 3.96749,-1.60702 1.52307,-1.52306 1.98499,-2.95434 2.19229,-6.79298 l 0.18579,-3.44 h -3.08793 -3.08794 v -3.360003 -3.36 h 7.36381 7.36381 l -0.0838,12.240003 -0.0838,12.24 h -3.2 -3.2 l -0.0954,-2.0055 -0.0954,-2.00551 -1.5046,1.53715 c -2.29799,2.34774 -4.05476,3.05186 -7.90458,3.16825 -1.93082,0.0584 -3.77741,-0.0658 -4.65581,-0.31306 z M 378.22497,118.03868 C 378.10248,117.9162 378.00229,107.616 378.00229,95.149327 V 72.48268 h 6.69843 c 6.09993,0 6.71395,0.05003 6.87219,0.56 0.0956,0.308 0.95488,4.448 1.90954,9.199997 3.7784,18.807693 4.49952,22.191443 4.70252,22.065983 0.11607,-0.0717 0.29322,-0.60193 0.39364,-1.17821 0.10044,-0.57627 0.99385,-4.935773 1.98534,-9.687773 0.99152,-4.752 2.06563,-10.008 2.38694,-11.68 0.53844,-2.801943 1.37136,-6.814727 1.77815,-8.566467 l 0.1687,-0.726467 6.63226,0.08647 6.63229,0.08647 v 22.719994 22.720003 h -4 -4 l -0.16,-18.08 c -0.088,-9.944003 -0.26234,-17.719993 -0.38743,-17.279993 -0.22429,0.78887 -0.58672,2.37354 -2.48857,10.87999 -1.94026,8.678303 -2.56119,11.475173 -3.83636,17.280003 -0.71523,3.256 -1.43846,6.244 -1.60716,6.64 -0.29024,0.68119 -0.48708,0.72 -3.65207,0.72 -2.91248,0 -3.36573,-0.0724 -3.50326,-0.56 -0.0869,-0.308 -1.25517,-5.528 -2.59613,-11.6 -2.61062,-11.820953 -3.52691,-15.903763 -4.70403,-20.959993 l -0.74499,-3.2 -0.16,18.079993 -0.16,18.08 -3.85732,0.0893 c -2.12153,0.0491 -3.95753,-0.0108 -4.08,-0.13333 z m 47.03066,-0.009 c -0.11734,-0.11733 -0.21334,-10.41333 -0.21334,-22.880003 V 72.48268 h 7.65683 c 11.71341,0 14.49072,0.632935 17.57094,4.00432 2.2208,2.43072 3.06618,5.071837 3.0714,9.595677 0.006,4.98131 -0.79607,7.27699 -3.47104,9.93781 -2.92573,2.91023 -6.34087,3.97653 -12.74813,3.980343 l -3.12,0.002 v 9.12 9.12 h -4.26666 c -2.34669,0 -4.36269,-0.096 -4.48,-0.21333 z m 14.97165,-25.101763 c 2.59558,-0.72062 4.01142,-3.0802 4.01142,-6.68523 0,-5.10806 -2.54387,-7.270334 -8.20812,-6.976817 l -1.86829,0.09681 -0.0862,6.959997 -0.0862,6.96 2.48624,-0.002 c 1.36742,-9.6e-4 3.05549,-0.15982 3.75123,-0.35298 z m 59.90835,25.101433 c -0.11734,-0.11733 -0.21334,-8.68533 -0.21334,-19.040003 v -18.82667 h -4.96 -4.96 v -3.843258 -3.84326 l 14.48,0.08326 14.48,0.08326 v 3.68 3.679998 l -4.96,0.16 -4.96,0.16 -0.0825,18.96 -0.0826,18.960003 h -4.26413 c -2.34525,0 -4.36013,-0.096 -4.47744,-0.21333 z m 23.29379,-0.18666 c -0.084,-0.22 -0.11552,-10.48 -0.0699,-22.800013 l 0.0828,-22.399994 4.56,-0.08879 4.56,-0.08878 v 22.888784 22.888793 h -4.49005 c -3.29722,0 -4.53062,-0.10627 -4.64282,-0.4 z m 16.17287,-22.478373 v -22.89749 l 5.16371,0.08793 5.16371,0.08793 2.01146,5.6 c 2.53418,7.05533 5.20384,14.55127 7.23696,20.32 0.86842,2.464003 1.7151,4.616803 1.88154,4.784003 0.19017,0.19105 0.30262,-5.486553 0.30262,-15.280003 V 72.48268 h 4.16214 4.16212 l -0.0821,22.799997 -0.0821,22.800003 -5.02445,0.088 c -4.53917,0.0795 -5.05344,0.0332 -5.32499,-0.48 -0.16531,-0.31242 -1.31338,-3.44805 -2.5513,-6.96805 -1.23788,-3.52 -2.63616,-7.48 -3.10726,-8.8 -0.47107,-1.32 -1.04768,-2.976003 -1.28128,-3.680003 -0.23363,-0.704 -1.0968,-3.152 -1.91821,-5.44 -0.82137,-2.288 -1.65971,-4.664 -1.86297,-5.28 -0.29344,-0.88937 -0.4025,2.14174 -0.52954,14.720003 l -0.16,15.84 -4.08,0.0896 -4.08,0.0896 z m -42.88,-47.249117 c -2.89623,-0.369818 -6.58186,-2.066227 -8.00119,-3.682746 -3.44188,-3.920115 -5.04486,-13.340724 -4.22044,-24.803434 0.85987,-11.9559092 3.48643,-16.2485832 11.0304,-18.0273642 3.76022,-0.886621 8.52771,-0.435811 11.83584,1.119188 3.86281,1.815748 6.07849,6.101445 6.3703,12.3218392 l 0.10509,2.24 h -4.48 -4.48 l -0.20442,-2.287339 c -0.34864,-3.901623 -1.20048,-5.7993752 -2.98269,-6.6450912 -2.40272,-1.140165 -5.10556,-0.38124 -6.3512,1.7833442 -1.34124,2.330705 -1.66259,5.276227 -1.6528,15.149086 0.01,9.800556 0.32631,12.213269 1.91914,14.626479 1.27597,1.93312 4.56941,2.412976 6.54448,0.953526 1.75658,-1.298032 2.87907,-4.776297 2.88506,-8.940006 l 0.002,-1.68 h 4.66873 4.66871 l -0.22791,2.8 c -0.38675,4.751539 -1.59664,8.576909 -3.52816,11.155129 -2.28608,3.051527 -8.02252,4.668054 -13.90137,3.917389 z m -191.68,-0.947718 c 0,-0.19536 0.50398,-2.24736 1.11996,-4.56 0.61598,-2.31264 1.71097,-6.4368 2.4333,-9.1648 0.72234,-2.728 1.94872,-7.302968 2.72529,-10.166597 0.77657,-2.863629 1.60908,-6.031628 1.85001,-7.04 0.40464,-1.693562 3.20869,-12.3164232 3.58815,-13.5934002 0.15036,-0.505978 0.71227,-0.55994 5.82485,-0.559378 l 5.65844,6.21e-4 2.04944,7.759377 c 1.1272,4.2676582 2.73033,10.3513782 3.56252,13.5193782 0.8322,3.168 1.95501,7.415999 2.49511,9.439999 0.54009,2.024 1.56832,5.912 2.28493,8.64 0.71664,2.728 1.38131,5.212 1.47705,5.52 0.16042,0.516099 -0.20045,0.559999 -4.60333,0.559999 h -4.77737 l -0.36461,-1.839999 c -0.20054,-1.012 -0.67088,-3.175043 -1.04518,-4.806765 l -0.68058,-2.966768 -6.11293,0.08677 -6.11295,0.08676 -0.92008,4.32 c -0.50604,2.376 -0.97225,4.5 -1.03601,4.72 -0.15546,0.536419 -9.41601,0.580479 -9.41601,0.0448 z m 21.85513,-16.8448 c 0.0731,-0.132 -0.49123,-3.119999 -1.25405,-6.639999 -0.76278,-3.52 -1.68531,-7.84 -2.05001,-9.6 -0.72631,-3.50496 -0.90464,-4.1549692 -1.08819,-3.9658 -0.29456,0.303596 -4.3515,19.852973 -4.17816,20.133449 0.22506,0.364148 8.37073,0.432913 8.57041,0.07235 z m 17.18487,-5.519999 V 2.0826848 h 8.59632 c 9.11004,0 11.01353,0.194723 13.63488,1.394804 3.3998,1.556494 5.25091,4.135751 6.57766,9.1651942 0.60275,2.284874 0.74163,3.820851 0.86826,9.601478 0.31801,14.519113 -1.80906,20.984927 -7.80234,23.717365 -2.85971,1.303799 -5.11795,1.556042 -13.95478,1.558739 l -7.92,0.0024 z m 16.656,15.119999 c 1.35734,-0.69015 1.88889,-1.192522 2.46387,-2.328621 1.54281,-3.048547 2.17849,-14.163167 1.20265,-21.027703 -0.89107,-6.268146 -2.49228,-7.7636742 -8.31225,-7.7636742 h -3.05027 V 24.802683 40.802682 h 2.98262 c 2.62086,0 3.19254,-0.106736 4.71338,-0.88 z m 26.08147,4 c -0.46112,-1.98 -1.11581,-4.752 -1.45488,-6.16 -0.33907,-1.408 -1.41664,-6.088 -2.39456,-10.399999 -0.97795,-4.312 -2.19821,-9.64 -2.71168,-11.84 -2.44333,-10.4685302 -2.89635,-12.4940152 -2.89635,-12.9495832 0,-0.418758 0.70134,-0.490415 4.8,-0.490415 2.64,0 4.8,0.04422 4.8,0.09828 0,0.142677 1.00336,5.495938 3.01046,16.0617222 0.96957,5.104 2.00336,10.575999 2.29731,12.159999 0.6936,3.737623 1.14887,5.523283 1.30115,5.103482 0.0671,-0.185085 1.60676,-7.745086 3.42135,-16.8 l 3.29926,-16.4634792 4.68893,-0.08852 4.68893,-0.08852 -0.18874,1.048519 c -0.10384,0.576685 -0.45177,2.128518 -0.77325,3.448518 -0.32144,1.32 -0.96384,4.1279982 -1.42755,6.2399982 -0.46371,2.112 -1.25245,5.568 -1.75277,7.68 -0.50028,2.112 -1.35433,5.784 -1.89788,8.159999 -2.95562,12.919622 -4.24538,18.395257 -4.38695,18.624313 -0.0869,0.140627 -2.72896,0.255686 -5.87123,0.255686 h -5.71318 z m 23.32957,3.04 c 0.11849,-0.308 0.57443,-1.928 1.01318,-3.6 0.43872,-1.672 1.21258,-4.624 1.71968,-6.56 1.04797,-4.0008 4.42182,-16.71342 5.3928,-20.319999 0.35539,-1.32 1.17757,-4.416 1.82704,-6.8799992 0.6495,-2.464 1.35203,-5.128 1.56122,-5.919999 l 0.38028,-1.44 5.63217,-0.08727 5.63216,-0.08727 0.3414,1.047273 c 0.18775,0.576 0.69159,2.415272 1.11959,4.087272 0.42803,1.672 2.82272,10.7439992 5.32157,20.1599992 5.05206,19.036879 5.0935,19.197343 5.10422,19.759999 0.006,0.301875 -1.12531,0.399999 -4.61078,0.399999 -4.12628,0 -4.63492,-0.05968 -4.77306,-0.559999 -0.085,-0.308 -0.55738,-2.468 -1.0497,-4.8 l -0.8951,-4.24 h -6.12154 -6.1215 l -1.06067,4.8 -1.06068,4.799999 h -4.7839 c -4.42486,0 -4.76771,-0.04203 -4.56838,-0.559999 z M 431.9332,30.225045 c 0.18368,-0.2972 -0.82102,-5.470445 -2.73107,-14.062362 -0.33258,-1.496 -0.77571,-3.495903 -0.98477,-4.444229 -0.24259,-1.100381 -0.46707,-1.5635 -0.62045,-1.279999 -0.13216,0.244325 -0.68941,2.604228 -1.2383,5.244228 -0.5489,2.64 -1.4752,6.998407 -2.05847,9.68535 -0.58326,2.686942 -0.99091,4.954942 -0.90582,5.039999 0.32227,0.322297 8.33267,0.150634 8.53888,-0.182987 z m 16.78909,-5.422362 V 2.0826848 h 5.25353 5.25354 l 0.49766,1.36 c 0.27373,0.748 0.84775,2.367999 1.27559,3.599999 0.42784,1.232 1.52384,4.3279992 2.43555,6.8799992 0.91174,2.552 2.42074,6.8 3.35334,9.44 0.93258,2.64 1.98333,5.610015 2.33495,6.600035 1.3368,3.763849 1.3359,3.77214 1.34611,-12.440035 l 0.01,-15.4399982 h 4.16 4.16 V 24.810609 47.538534 l -5.19517,-0.08793 -5.19517,-0.08793 -1.07069,-3.04 c -0.58889,-1.672 -1.55276,-4.408 -2.14195,-6.08 -0.58918,-1.672 -2.54006,-7.216 -4.33529,-12.319999 -1.79524,-5.104 -3.38516,-9.496 -3.53316,-9.76 -0.14841,-0.264688 -0.27347,6.661182 -0.27884,15.439999 l -0.01,15.919999 h -4.16 -4.16 z m 71.04,0.0036 V 2.0826848 h 12.64 12.64 v 3.679999 3.68 h -8.16 -8.16 v 5.4399992 5.44 h 7.52 7.52 v 3.68 3.68 h -7.52 -7.52 v 6.239999 6.24 h 8.49049 8.49047 l -0.0905,3.6 -0.0905,3.6 -12.88,0.08363 -12.88,0.08363 V 24.806313 Z m 31.04,-0.02834 V 2.0332518 l 9.68,0.116095 c 9.08883,0.109005 9.78842,0.159297 11.45533,0.823505 6.32589,2.520686 8.62329,8.0953252 8.62422,20.9266752 0,8.072402 -0.83104,13.514997 -2.5928,16.968328 -1.69673,3.32585 -5.09821,5.639318 -9.29197,6.319818 -1.11913,0.181593 -5.59878,0.33126 -9.95478,0.332592 l -7.92,0.0024 V 24.777967 Z m 16.74854,15.250741 c 3.02768,-1.493494 3.83472,-4.675059 3.86234,-15.226002 0.0353,-13.509847 -1.29046,-15.9999992 -8.51869,-15.9999992 h -3.13219 V 24.83181 40.860937 l 3.28,-0.113114 c 2.39475,-0.08259 3.61158,-0.276678 4.50854,-0.719139 z"
       id="path30" />
  </g>
</svg>
